<svg width="404" height="444" viewBox="0 0 404 444" fill="none" xmlns="http://www.w3.org/2000/svg">
<g opacity="0.5">
<path opacity="0.5" d="M237.939 332.332C329.584 332.332 403.877 257.937 403.877 166.166C403.877 74.3951 329.584 0 237.939 0C146.293 0 72 74.3951 72 166.166C72 257.937 146.293 332.332 237.939 332.332Z" fill="url(#paint0_linear)"/>
</g>
<path d="M237.939 327.917C327.646 327.917 400.369 255.095 400.369 165.264C400.369 75.4328 327.646 2.61035 237.939 2.61035C148.231 2.61035 75.5081 75.4328 75.5081 165.264C75.5081 255.095 148.231 327.917 237.939 327.917Z" fill="#F5F5F5"/>
<path d="M327.788 179.888C327.788 239.793 288.755 306.481 240.602 306.481C192.448 306.481 153.459 239.793 153.459 179.888C153.459 119.983 192.491 89.5569 240.645 89.5569C288.798 89.5569 327.788 119.997 327.788 179.888Z" fill="#3585FD"/>
<path d="M238.397 328.419C270.138 328.471 301.192 319.166 327.688 301.663C321.703 268.915 298.922 267.037 298.922 267.037H173.333C173.333 267.037 151.855 268.8 145.125 298.939C172.431 318.172 205.013 328.47 238.397 328.419Z" fill="#6477B6"/>
<path opacity="0.1" d="M211.392 227.076H261.636V267.323C261.636 273.993 258.99 280.39 254.28 285.107C249.57 289.823 243.182 292.473 236.521 292.473C229.86 292.473 223.472 289.823 218.762 285.107C214.052 280.39 211.406 273.993 211.406 267.323V227.076H211.392Z" fill="black"/>
<path d="M216.189 225.212H256.839C258.111 225.212 259.331 225.718 260.231 226.619C261.131 227.52 261.636 228.741 261.636 230.015V265.459C261.636 272.129 258.99 278.526 254.28 283.242C249.57 287.959 243.182 290.609 236.521 290.609C229.86 290.609 223.472 287.959 218.762 283.242C214.052 278.526 211.406 272.129 211.406 265.459V230.015C211.406 228.744 211.91 227.524 212.806 226.624C213.702 225.723 214.919 225.216 216.189 225.212Z" fill="#FDB797"/>
<path opacity="0.1" d="M211.492 246.073C227.685 252.134 245.509 252.184 261.736 246.217V240.037H211.492V246.073Z" fill="black"/>
<path d="M236.693 249.444C276.462 249.444 308.701 217.16 308.701 177.336C308.701 137.512 276.462 105.229 236.693 105.229C196.924 105.229 164.685 137.512 164.685 177.336C164.685 217.16 196.924 249.444 236.693 249.444Z" fill="#FDB797"/>
<path d="M166.174 186.828C169.875 186.828 172.875 181.198 172.875 174.254C172.875 167.309 169.875 161.679 166.174 161.679C162.473 161.679 159.473 167.309 159.473 174.254C159.473 181.198 162.473 186.828 166.174 186.828Z" fill="#FDB797"/>
<path d="M306.84 186.828C310.541 186.828 313.541 181.198 313.541 174.254C313.541 167.309 310.541 161.679 306.84 161.679C303.139 161.679 300.139 167.309 300.139 174.254C300.139 181.198 303.139 186.828 306.84 186.828Z" fill="#FDB797"/>
<path opacity="0.1" d="M172.889 138.222C172.889 138.222 213.597 194.012 306.954 174.956C306.954 174.956 317.378 162.253 292.006 123.252C266.633 84.2524 195.985 90.6042 172.889 138.222Z" fill="black"/>
<path d="M172.889 137.318C172.889 137.318 213.597 193.108 306.954 174.053C306.954 174.053 317.378 161.349 292.006 122.349C266.633 83.3488 195.985 89.7006 172.889 137.318Z" fill="#3585FD"/>
<path d="M146.013 296.73H84.0384C82.6261 296.732 81.2722 297.207 80.2735 298.052C79.2749 298.898 78.7131 300.043 78.7114 301.239V417.807L78.0011 417.99L62.7976 421.931C62.0771 422.116 61.2988 422.053 60.6337 421.754C59.9685 421.454 59.4709 420.944 59.2499 420.335L14.0266 295.321C13.8065 294.711 13.8815 294.052 14.2351 293.489C14.5887 292.926 15.192 292.505 15.9124 292.318L39.3409 286.247L107.261 268.653L130.689 262.582C131.046 262.489 131.42 262.457 131.792 262.486C132.163 262.516 132.524 262.608 132.854 262.756C133.183 262.904 133.475 263.105 133.712 263.349C133.95 263.592 134.128 263.873 134.237 264.175L145.797 296.129L146.013 296.73Z" fill="url(#paint1_linear)"/>
<path d="M159.537 296.129L145.605 257.617C145.373 256.975 144.994 256.378 144.49 255.86C143.985 255.343 143.365 254.914 142.665 254.599C141.965 254.284 141.198 254.089 140.409 254.025C139.62 253.961 138.823 254.03 138.065 254.226L105.126 262.759L37.2097 280.356L4.27072 288.892C2.74055 289.289 1.45931 290.185 0.708245 291.381C-0.0428219 292.577 -0.202359 293.977 0.264659 295.272L47.8815 426.892C48.2609 427.938 49.0264 428.854 50.0657 429.505C51.105 430.155 52.3634 430.507 53.6562 430.508C54.2545 430.508 54.8495 430.432 55.4211 430.283L78.0008 424.434L78.7111 424.248V423.619L78.0008 423.803L55.2116 429.709C53.861 430.057 52.4022 429.938 51.1552 429.377C49.9082 428.817 48.9749 427.86 48.5599 426.718L0.946669 295.095C0.741076 294.529 0.669421 293.934 0.735806 293.345C0.80219 292.756 1.0053 292.183 1.33353 291.66C1.66175 291.137 2.10864 290.674 2.64859 290.298C3.18854 289.921 3.81095 289.639 4.48018 289.466L37.4192 280.93L105.336 263.336L138.275 254.8C138.782 254.669 139.31 254.602 139.841 254.602C140.98 254.604 142.088 254.915 143.003 255.489C143.918 256.063 144.592 256.869 144.927 257.791L158.795 296.129L159.015 296.73H159.754L159.537 296.129Z" fill="#3F3D56"/>
<path d="M43.5686 292.416C42.8842 292.416 42.2178 292.23 41.6674 291.886C41.117 291.541 40.7115 291.057 40.5104 290.503L35.9361 277.858C35.8132 277.519 35.7706 277.162 35.8106 276.808C35.8507 276.455 35.9726 276.111 36.1695 275.797C36.3665 275.484 36.6345 275.206 36.9583 274.98C37.2821 274.754 37.6553 274.584 38.0567 274.48L100.539 258.291C101.35 258.082 102.225 258.153 102.974 258.49C103.722 258.826 104.282 259.4 104.531 260.086L109.106 272.731C109.353 273.417 109.268 274.157 108.871 274.791C108.473 275.424 107.795 275.898 106.985 276.109L44.5024 292.298C44.1999 292.376 43.8851 292.416 43.5686 292.416Z" fill="#6477B6"/>
<path d="M67.5307 267.511C71.4534 267.511 74.6334 264.82 74.6334 261.5C74.6334 258.18 71.4534 255.489 67.5307 255.489C63.6079 255.489 60.4279 258.18 60.4279 261.5C60.4279 264.82 63.6079 267.511 67.5307 267.511Z" fill="#6477B6"/>
<path d="M67.5307 265.306C70.0147 265.306 72.0284 263.602 72.0284 261.5C72.0284 259.398 70.0147 257.694 67.5307 257.694C65.0467 257.694 63.033 259.398 63.033 261.5C63.033 263.602 65.0467 265.306 67.5307 265.306Z" fill="white"/>
<path d="M214.019 428.972H93.9824C93.1821 428.972 92.4148 428.702 91.8489 428.223C91.283 427.744 90.9647 427.095 90.9637 426.418V304.695C90.9646 304.018 91.283 303.368 91.8489 302.889C92.4148 302.41 93.1821 302.141 93.9824 302.14H214.019C214.819 302.141 215.587 302.41 216.152 302.889C216.718 303.368 217.037 304.018 217.038 304.695V426.418C217.037 427.095 216.718 427.744 216.152 428.223C215.586 428.702 214.819 428.972 214.019 428.972Z" fill="url(#paint2_linear)"/>
<path d="M158.795 296.129H84.0385C82.4379 296.131 80.9036 296.67 79.7719 297.628C78.6402 298.586 78.0034 299.884 78.0011 301.239V423.803L78.7114 423.62V301.239C78.7131 300.043 79.2749 298.897 80.2735 298.052C81.2722 297.207 82.6262 296.732 84.0385 296.73H159.015L158.795 296.129ZM223.963 296.129H84.0385C82.4379 296.131 80.9036 296.67 79.7719 297.628C78.6402 298.586 78.0034 299.884 78.0011 301.239V438.891C78.0034 440.245 78.6402 441.543 79.7719 442.501C80.9036 443.459 82.4379 443.998 84.0385 444H223.963C225.563 443.998 227.097 443.459 228.229 442.501C229.361 441.543 229.998 440.245 230 438.891V301.239C229.998 299.884 229.361 298.586 228.229 297.628C227.097 296.67 225.563 296.131 223.963 296.129ZM229.29 438.891C229.288 440.086 228.726 441.232 227.728 442.077C226.729 442.922 225.375 443.397 223.963 443.399H84.0385C82.6262 443.397 81.2722 442.922 80.2735 442.077C79.2749 441.232 78.7131 440.086 78.7114 438.891V301.239C78.7131 300.043 79.2749 298.897 80.2735 298.052C81.2722 297.207 82.6262 296.732 84.0385 296.73H223.963C225.375 296.732 226.729 297.207 227.728 298.052C228.726 298.897 229.288 300.043 229.29 301.239V438.891Z" fill="#3F3D56"/>
<path d="M186.673 309.354H121.328C120.481 309.353 119.668 309.068 119.069 308.56C118.47 308.053 118.133 307.366 118.132 306.649V293.424C118.133 292.707 118.47 292.02 119.069 291.513C119.668 291.006 120.481 290.72 121.328 290.719H186.673C187.521 290.72 188.333 291.006 188.932 291.513C189.532 292.02 189.869 292.707 189.87 293.424V306.649C189.869 307.366 189.532 308.053 188.932 308.56C188.333 309.068 187.521 309.353 186.673 309.354Z" fill="#6477B6"/>
<path d="M154.001 291.621C157.923 291.621 161.103 288.93 161.103 285.61C161.103 282.29 157.923 279.599 154.001 279.599C150.078 279.599 146.898 282.29 146.898 285.61C146.898 288.93 150.078 291.621 154.001 291.621Z" fill="#6477B6"/>
<path d="M154.001 289.271C156.39 289.271 158.327 287.632 158.327 285.61C158.327 283.588 156.39 281.949 154.001 281.949C151.611 281.949 149.674 283.588 149.674 285.61C149.674 287.632 151.611 289.271 154.001 289.271Z" fill="white"/>
<defs>
<linearGradient id="paint0_linear" x1="38808.7" y1="246973" x2="38808.7" y2="169948" gradientUnits="userSpaceOnUse">
<stop stop-color="#808080" stop-opacity="0.25"/>
<stop offset="0.54" stop-color="#808080" stop-opacity="0.12"/>
<stop offset="1" stop-color="#808080" stop-opacity="0.1"/>
</linearGradient>
<linearGradient id="paint1_linear" x1="79.958" y1="262.476" x2="79.958" y2="422.035" gradientUnits="userSpaceOnUse">
<stop stop-color="#E6E6E6"/>
<stop offset="1" stop-color="#F2F2F2"/>
</linearGradient>
<linearGradient id="paint2_linear" x1="154.001" y1="302.14" x2="154.001" y2="428.972" gradientUnits="userSpaceOnUse">
<stop stop-color="#E6E6E6"/>
<stop offset="1" stop-color="#BEBEBE"/>
</linearGradient>
</defs>
</svg>
